<svg xmlns="http://www.w3.org/2000/svg" width="1200" height="780" viewBox="0 0 1200 780">
<rect width="1200" height="780" fill="#10120f"/>
<g font-family="Helvetica,Arial,sans-serif" fill="#f3f4ed">
<text x="60" y="60" font-size="13" letter-spacing="3">BITSTOCKERZ / IDENTITY 02</text>
<text x="1140" y="60" text-anchor="end" font-size="13" fill="#acb3a3">OFFSET</text>
<g transform="translate(195 165) scale(2)"><path d="M8 28V16L20 4H60L46 18H24V28H8ZM56 36V48L44 60H4L18 46H40V36H56Z" fill="#d7f86b"/></g>
<text x="354" y="259" font-size="88" font-weight="500" letter-spacing="-6">bitstockerz</text>
<text x="600" y="350" text-anchor="middle" font-size="22" fill="#acb3a3">Find your edge. Then test it.</text>
<path d="M60 410H1140" stroke="#363c30"/>
<rect x="60" y="455" width="320" height="200" rx="2" fill="#d7f86b"/>
<g transform="translate(178 505) scale(1.3)"><path d="M8 28V16L20 4H60L46 18H24V28H8ZM56 36V48L44 60H4L18 46H40V36H56Z" fill="#10120f"/></g>
<rect x="440" y="455" width="320" height="200" rx="2" fill="#f3f4ed"/>
<g transform="translate(558 505) scale(1.3)"><path d="M8 28V16L20 4H60L46 18H24V28H8ZM56 36V48L44 60H4L18 46H40V36H56Z" fill="#10120f"/></g>
<rect x="820" y="455" width="320" height="200" rx="2" fill="#22261e"/>
<g transform="translate(938 505) scale(1.3)"><path d="M8 28V16L20 4H60L46 18H24V28H8ZM56 36V48L44 60H4L18 46H40V36H56Z" fill="#f3f4ed"/></g>
<text x="60" y="690" font-size="12" letter-spacing="2">CITRON / D7F86B</text>
<text x="440" y="690" font-size="12" letter-spacing="2">CHALK / F3F4ED</text>
<text x="820" y="690" font-size="12" letter-spacing="2">INK / 10120F</text>
<text x="60" y="750" font-size="12" fill="#acb3a3">Two opposing forms. One continuous process.</text>
</g></svg>